<?xml version="1.0" encoding="UTF-8" standalone="no"?>
<svg
   xmlns="http://www.w3.org/2000/svg"
   id="svg12"
   style="enable-background:new 0 0 100 100;"
   viewBox="0 0 100 100"
   height="32.0px"
   width="32.0px"
   y="0px"
   x="0px"
   version="1.1">
  <defs
     id="defs16" />
  <path
     style="fill:#ff0000;stroke-width:0.23566669"
     d="M 48.052248,23.782302 67.199697,7.8248373 C 68.413849,6.80676 68.873869,5.140124 68.323352,3.6393994 67.787917,2.1537529 66.37769,1.1582989 64.786469,1.1582989 H 4.4557903 c -2.0814073,0 -3.77066639,1.6892592 -3.77066639,3.7706682 V 42.63564 c 0,2.081407 1.68925909,3.770667 3.77066639,3.770667 H 64.786469 c 1.591221,0 3.001448,-0.995456 3.544429,-2.48864 0.542971,-1.493184 0.09049,-3.16736 -1.123661,-4.185442 z"
     id="path2" />
  <path
     style="fill:#455a64;stroke-width:0.23566669"
     d="m 4.4557903,99.19565 c -2.0814073,0 -3.77066639,-1.689259 -3.77066639,-3.770669 V 4.9289671 c 0,-2.081409 1.68925909,-3.7706682 3.77066639,-3.7706682 2.0814093,0 3.7706664,1.6892592 3.7706664,3.7706682 V 95.424981 c 0,2.08141 -1.6892571,3.770669 -3.7706664,3.770669 z"
     id="path6" />
</svg>
