<?xml version="1.0" encoding="UTF-8" standalone="no"?>
<svg
   xmlns="http://www.w3.org/2000/svg"
   id="svg12"
   style="enable-background:new 0 0 100 100;"
   viewBox="0 0 100 100"
   height="32.0px"
   width="32.0px"
   y="0px"
   x="0px"
   version="1.1">

  <defs
     id="defs16" />
  <g
     transform="translate(0.89886472,0.14981026)"
     id="g3762">
    <path
       style="fill:#455a64;stroke-width:0.21484375"
       d="m 50.423731,99.843746 c -1.8975,0 -3.4375,-1.539999 -3.4375,-3.437499 V 44.843748 c 0,-1.8975 1.54,-3.4375 3.4375,-3.4375 1.8975,0 3.4375,1.54 3.4375,3.4375 v 51.562499 c 0,1.8975 -1.54,3.437499 -3.4375,3.437499 z"
       id="path3854" />
    <circle
       style="fill:#ffcc00;stroke-width:0.21484375"
       cx="50.423733"
       cy="24.218746"
       r="24.0625"
       id="circle3856" />
    <path
       style="fill:#ececec;stroke-width:0.21484375"
       d="m 60.73623,24.218747 c -1.897499,0 -3.437499,-1.54 -3.437499,-3.4375 0,-1.8975 -1.54,-3.4375 -3.4375,-3.4375 -1.8975,0 -3.4375,-1.54 -3.4375,-3.4375 0,-1.8975 1.54,-3.437499 3.4375,-3.437499 5.685624,0 10.312499,4.626874 10.312499,10.312499 0,1.8975 -1.54,3.4375 -3.4375,3.4375 z"
       id="path3858" />
  </g>
  
</svg>
