<?xml version="1.0" encoding="UTF-8" standalone="no"?>
<svg
   xmlns:svg="http://www.w3.org/2000/svg"
   xmlns="http://www.w3.org/2000/svg"
   version="1.1"
   x="0px"
   y="0px"
   width="32.0px"
   height="32.0px"
   viewBox="0 0 100 100"
   style="enable-background:new 0 0 100 100;"
   id="svg12">
  <metadata
     id="metadata3731">
  </metadata>
  <defs
     id="defs16" />
  <path
     style="fill:#455a64;stroke-width:0.21484375"
     d="m 51.322596,99.993556 c -1.8975,0 -3.4375,-1.539999 -3.4375,-3.437499 V 44.993558 c 0,-1.8975 1.54,-3.4375 3.4375,-3.4375 1.8975,0 3.4375,1.54 3.4375,3.4375 v 51.562499 c 0,1.8975 -1.54,3.437499 -3.4375,3.437499 z"
     id="path3854" />
  <g
     transform="matrix(0.41776963,0,0,0.41776963,20.196689,-3.9209578)"
     id="g48">
    <circle
       style="fill:#334d5c"
       cx="75"
       cy="75"
       r="64"
       id="circle2" />
    <path
       style="fill:#ebf0f3"
       d="M 91.82,67.29 85,60.45 l -35.92,33 a 6.91,6.91 0 1 0 9.76,9.76 z"
       id="path4" />
    <g
       style="fill:#e1e6e9"
       id="g12">
      <path
         d="M 49.83,102.43 A 5.49,5.49 0 0 1 50,94.5 l 34.93,-32.1 4.93,4.93 -32.09,34.94 a 5.51,5.51 0 0 1 -7.94,0.16 z"
         id="path6" />
      <path
         d="m 103.81,68.57 a 14.22,14.22 0 1 1 -7,-23.93 l -6.19,6.18 2.28,8.52 8.52,2.28 6.18,-6.19 a 14.21,14.21 0 0 1 -3.79,13.14 z"
         id="path8" />
      <path
         d="m 51.56,49.82 -6.82,-4.1 -2.71,2.71 4.1,6.82 6.82,4.1 0.04,-0.05 13.57,13.57 2.62,-2.63 -13.56,-13.56 0.04,-0.04 z"
         id="path10" />
    </g>
    <path
       style="fill:#d15241"
       d="m 63.35,69.7 h 10.53 v 5.21 H 63.35 Z"
       transform="matrix(0.707,-0.707,0.707,0.707,-31.03,69.69)"
       id="path14" />
    <path
       style="fill:#e56353"
       d="m 73,67.86 -8.86,8.85 a 1.27,1.27 0 0 0 0,1.79 l 25.66,25.66 a 5.26,5.26 0 0 0 7.45,0 l 3.19,-3.19 a 5.26,5.26 0 0 0 0,-7.45 L 74.81,67.86 a 1.26,1.26 0 0 0 -1.81,0 z"
       id="path16" />
    <path
       style="fill:#d15241"
       d="m 68.75,76.84 a 1.23,1.23 0 0 0 0,1.74 l 21.87,21.88 a 1.24,1.24 0 0 0 1.75,-1.75 L 70.5,76.84 a 1.23,1.23 0 0 0 -1.75,0 z"
       id="path18" />
    <path
       style="fill:#d15241"
       d="m 73.15,72.44 a 1.23,1.23 0 0 0 0,1.74 L 95,96.06 a 1.24,1.24 0 0 0 1.75,-1.75 L 74.89,72.44 a 1.23,1.23 0 0 0 -1.74,0 z"
       id="path20" />
  </g>
</svg>
